<?xml version='1.0' encoding='UTF-8' standalone='no'?>
<svg viewBox="0 0 242 179" xmlns:xlink="http://www.w3.org/1999/xlink" xmlns="http://www.w3.org/2000/svg" width="242pt" height="179pt">
 <title>Figure 1</title>
 <desc>
Creator: GL2PS 1.4.2, (C) 1999-2020 C. Geuzaine
For: Octave
CreationDate: Sat Aug 13 13:52:28 2022
</desc>
 <defs/>
 <polygon points="0,0 242,0 242,179 0,179" fill="#ffffff"/>
 <g>
  <polygon points="0,179 242,179 242,0 0,0" shape-rendering="crispEdges" fill="#ffffff"/>
  <clipPath id="cp00242179">
   <polygon points="0,179 242,179 242,0 0,0"/>
  </clipPath>
  <g clip-path="url(#cp00242179)">
   <polygon points="33.9959,158.687 219.356,158.687 219.356,13.4392 33.9959,13.4392" shape-rendering="crispEdges" fill="#ffffff"/>
   <polygon points="72.6004,158.687 72.6004,158.604 58.3428,158.604 58.3428,158.687" shape-rendering="crispEdges" fill="#20928c"/>
   <polygon points="86.858,158.687 86.858,158.106 72.6004,158.106 72.6004,158.687" shape-rendering="crispEdges" fill="#20928c"/>
   <polygon points="101.116,158.687 101.116,149.765 86.858,149.765 86.858,158.687" shape-rendering="crispEdges" fill="#20928c"/>
   <polygon points="115.373,158.687 115.373,113.909 101.116,113.909 101.116,158.687" shape-rendering="crispEdges" fill="#20928c"/>
   <polygon points="129.631,158.687 129.631,51.1622 115.373,51.1622 115.373,158.687" shape-rendering="crispEdges" fill="#20928c"/>
   <polygon points="143.888,158.687 143.888,24.7686 129.631,24.7686 129.631,158.687" shape-rendering="crispEdges" fill="#20928c"/>
   <polygon points="158.146,158.687 158.146,72.244 143.888,72.244 143.888,158.687" shape-rendering="crispEdges" fill="#20928c"/>
   <polygon points="172.403,158.687 172.403,131.09 158.146,131.09 158.146,158.687" shape-rendering="crispEdges" fill="#20928c"/>
   <polygon points="186.661,158.687 186.661,153.915 172.403,153.915 172.403,158.687" shape-rendering="crispEdges" fill="#20928c"/>
   <polygon points="200.919,158.687 200.919,158.314 186.661,158.314 186.661,158.687" shape-rendering="crispEdges" fill="#20928c"/>
   <polyline stroke-width="0.5" stroke="#000000" points="72.6004,158.604 58.3428,158.604 58.3428,158.687 72.6004,158.687 72.6004,158.604" stroke-linecap="butt" stroke-linejoin="miter" fill="none"/>
   <polyline stroke-width="0.5" stroke="#000000" points="86.858,158.106 72.6004,158.106 72.6004,158.687 86.858,158.687 86.858,158.106" stroke-linecap="butt" stroke-linejoin="miter" fill="none"/>
   <polyline stroke-width="0.5" stroke="#000000" points="101.116,149.765 86.858,149.765 86.858,158.687 101.116,158.687 101.116,149.765" stroke-linecap="butt" stroke-linejoin="miter" fill="none"/>
   <polyline stroke-width="0.5" stroke="#000000" points="115.373,113.909 101.116,113.909 101.116,158.687 115.373,158.687 115.373,113.909" stroke-linecap="butt" stroke-linejoin="miter" fill="none"/>
   <polyline stroke-width="0.5" stroke="#000000" points="129.631,51.1622 115.373,51.1622 115.373,158.687 129.631,158.687 129.631,51.1622" stroke-linecap="butt" stroke-linejoin="miter" fill="none"/>
   <polyline stroke-width="0.5" stroke="#000000" points="143.888,24.7686 129.631,24.7686 129.631,158.687 143.888,158.687 143.888,24.7686" stroke-linecap="butt" stroke-linejoin="miter" fill="none"/>
   <polyline stroke-width="0.5" stroke="#000000" points="158.146,72.244 143.888,72.244 143.888,158.687 158.146,158.687 158.146,72.244" stroke-linecap="butt" stroke-linejoin="miter" fill="none"/>
   <polyline stroke-width="0.5" stroke="#000000" points="172.403,131.09 158.146,131.09 158.146,158.687 172.403,158.687 172.403,131.09" stroke-linecap="butt" stroke-linejoin="miter" fill="none"/>
   <polyline stroke-width="0.5" stroke="#000000" points="186.661,153.915 172.403,153.915 172.403,158.687 186.661,158.687 186.661,153.915" stroke-linecap="butt" stroke-linejoin="miter" fill="none"/>
   <polyline stroke-width="0.5" stroke="#000000" points="200.919,158.314 186.661,158.314 186.661,158.687 200.919,158.687 200.919,158.314" stroke-linecap="butt" stroke-linejoin="miter" fill="none"/>
   <polyline stroke-width="0.5" stroke="#262626" points="33.9959,158.687 33.9959,156.831" stroke-linecap="butt" stroke-linejoin="miter" fill="none"/>
   <polyline stroke-width="0.5" stroke="#262626" points="33.9959,13.4392 33.9959,15.296" stroke-linecap="butt" stroke-linejoin="miter" fill="none"/>
   <polyline stroke-width="0.5" stroke="#262626" points="60.4758,158.687 60.4758,156.831" stroke-linecap="butt" stroke-linejoin="miter" fill="none"/>
   <polyline stroke-width="0.5" stroke="#262626" points="60.4758,13.4392 60.4758,15.296" stroke-linecap="butt" stroke-linejoin="miter" fill="none"/>
   <polyline stroke-width="0.5" stroke="#262626" points="86.9558,158.687 86.9558,156.831" stroke-linecap="butt" stroke-linejoin="miter" fill="none"/>
   <polyline stroke-width="0.5" stroke="#262626" points="86.9558,13.4392 86.9558,15.296" stroke-linecap="butt" stroke-linejoin="miter" fill="none"/>
   <polyline stroke-width="0.5" stroke="#262626" points="113.436,158.687 113.436,156.831" stroke-linecap="butt" stroke-linejoin="miter" fill="none"/>
   <polyline stroke-width="0.5" stroke="#262626" points="113.436,13.4392 113.436,15.296" stroke-linecap="butt" stroke-linejoin="miter" fill="none"/>
   <polyline stroke-width="0.5" stroke="#262626" points="139.916,158.687 139.916,156.831" stroke-linecap="butt" stroke-linejoin="miter" fill="none"/>
   <polyline stroke-width="0.5" stroke="#262626" points="139.916,13.4392 139.916,15.296" stroke-linecap="butt" stroke-linejoin="miter" fill="none"/>
   <polyline stroke-width="0.5" stroke="#262626" points="166.396,158.687 166.396,156.831" stroke-linecap="butt" stroke-linejoin="miter" fill="none"/>
   <polyline stroke-width="0.5" stroke="#262626" points="166.396,13.4392 166.396,15.296" stroke-linecap="butt" stroke-linejoin="miter" fill="none"/>
   <polyline stroke-width="0.5" stroke="#262626" points="192.876,158.687 192.876,156.831" stroke-linecap="butt" stroke-linejoin="miter" fill="none"/>
   <polyline stroke-width="0.5" stroke="#262626" points="192.876,13.4392 192.876,15.296" stroke-linecap="butt" stroke-linejoin="miter" fill="none"/>
   <polyline stroke-width="0.5" stroke="#262626" points="219.356,158.687 219.356,156.831" stroke-linecap="butt" stroke-linejoin="miter" fill="none"/>
   <polyline stroke-width="0.5" stroke="#262626" points="219.356,13.4392 219.356,15.296" stroke-linecap="butt" stroke-linejoin="miter" fill="none"/>
   <g font-family="FreeSans" font-style="normal" xml:space="preserve" transform="translate(26.4959,174.2) rotate(-0,7.5,-8)" font-size="10" font-weight="normal">
    <text x="0 3 9 " y="-0" fill="rgb(38,38,38)">-25</text>
   </g>
   <g font-family="FreeSans" font-style="normal" xml:space="preserve" transform="translate(52.9758,174.2) rotate(-0,7.5,-8)" font-size="10" font-weight="normal">
    <text x="0 3 9 " y="-0" fill="rgb(38,38,38)">-20</text>
   </g>
   <g font-family="FreeSans" font-style="normal" xml:space="preserve" transform="translate(79.4558,174.2) rotate(-0,7.5,-8)" font-size="10" font-weight="normal">
    <text x="0 3 9 " y="-0" fill="rgb(38,38,38)">-15</text>
   </g>
   <g font-family="FreeSans" font-style="normal" xml:space="preserve" transform="translate(105.936,174.2) rotate(-0,7.5,-8)" font-size="10" font-weight="normal">
    <text x="0 3 9 " y="-0" fill="rgb(38,38,38)">-10</text>
   </g>
   <g font-family="FreeSans" font-style="normal" xml:space="preserve" transform="translate(135.416,174.2) rotate(-0,4.5,-8)" font-size="10" font-weight="normal">
    <text x="0 3 " y="-0" fill="rgb(38,38,38)">-5</text>
   </g>
   <g font-family="FreeSans" font-style="normal" xml:space="preserve" transform="translate(163.396,174.2) rotate(-0,3,-8)" font-size="10" font-weight="normal">
    <text x="0 " y="-0" fill="rgb(38,38,38)">0</text>
   </g>
   <g font-family="FreeSans" font-style="normal" xml:space="preserve" transform="translate(189.876,174.2) rotate(-0,3,-8)" font-size="10" font-weight="normal">
    <text x="0 " y="-0" fill="rgb(38,38,38)">5</text>
   </g>
   <g font-family="FreeSans" font-style="normal" xml:space="preserve" transform="translate(213.356,174.2) rotate(-0,6,-8)" font-size="10" font-weight="normal">
    <text x="0 6 " y="-0" fill="rgb(38,38,38)">10</text>
   </g>
   <polyline stroke-width="0.5" stroke="#262626" points="33.9959,158.687 35.8531,158.687" stroke-linecap="butt" stroke-linejoin="miter" fill="none"/>
   <polyline stroke-width="0.5" stroke="#262626" points="219.356,158.687 217.498,158.687" stroke-linecap="butt" stroke-linejoin="miter" fill="none"/>
   <polyline stroke-width="0.5" stroke="#262626" points="33.9959,137.938 35.8531,137.938" stroke-linecap="butt" stroke-linejoin="miter" fill="none"/>
   <polyline stroke-width="0.5" stroke="#262626" points="219.356,137.938 217.498,137.938" stroke-linecap="butt" stroke-linejoin="miter" fill="none"/>
   <polyline stroke-width="0.5" stroke="#262626" points="33.9959,117.188 35.8531,117.188" stroke-linecap="butt" stroke-linejoin="miter" fill="none"/>
   <polyline stroke-width="0.5" stroke="#262626" points="219.356,117.188 217.498,117.188" stroke-linecap="butt" stroke-linejoin="miter" fill="none"/>
   <polyline stroke-width="0.5" stroke="#262626" points="33.9959,96.4382 35.8531,96.4382" stroke-linecap="butt" stroke-linejoin="miter" fill="none"/>
   <polyline stroke-width="0.5" stroke="#262626" points="219.356,96.4382 217.498,96.4382" stroke-linecap="butt" stroke-linejoin="miter" fill="none"/>
   <polyline stroke-width="0.5" stroke="#262626" points="33.9959,75.6884 35.8531,75.6884" stroke-linecap="butt" stroke-linejoin="miter" fill="none"/>
   <polyline stroke-width="0.5" stroke="#262626" points="219.356,75.6884 217.498,75.6884" stroke-linecap="butt" stroke-linejoin="miter" fill="none"/>
   <polyline stroke-width="0.5" stroke="#262626" points="33.9959,54.9387 35.8531,54.9387" stroke-linecap="butt" stroke-linejoin="miter" fill="none"/>
   <polyline stroke-width="0.5" stroke="#262626" points="219.356,54.9387 217.498,54.9387" stroke-linecap="butt" stroke-linejoin="miter" fill="none"/>
   <polyline stroke-width="0.5" stroke="#262626" points="33.9959,34.1889 35.8531,34.1889" stroke-linecap="butt" stroke-linejoin="miter" fill="none"/>
   <polyline stroke-width="0.5" stroke="#262626" points="219.356,34.1889 217.498,34.1889" stroke-linecap="butt" stroke-linejoin="miter" fill="none"/>
   <polyline stroke-width="0.5" stroke="#262626" points="33.9959,13.4392 35.8531,13.4392" stroke-linecap="butt" stroke-linejoin="miter" fill="none"/>
   <polyline stroke-width="0.5" stroke="#262626" points="219.356,13.4392 217.498,13.4392" stroke-linecap="butt" stroke-linejoin="miter" fill="none"/>
   <g font-family="FreeSans" font-style="normal" xml:space="preserve" transform="translate(22.9862,162.687) rotate(-0,6,-4)" font-size="10" font-weight="normal">
    <text x="0 " y="-0" fill="rgb(38,38,38)">0</text>
   </g>
   <g font-family="FreeSans" font-style="normal" xml:space="preserve" transform="translate(10.9862,141.938) rotate(-0,18,-4)" font-size="10" font-weight="normal">
    <text x="0 6 12 " y="-0" fill="rgb(38,38,38)">500</text>
   </g>
   <g font-family="FreeSans" font-style="normal" xml:space="preserve" transform="translate(4.98618,121.188) rotate(-0,24,-4)" font-size="10" font-weight="normal">
    <text x="0 6 12 18 " y="-0" fill="rgb(38,38,38)">1000</text>
   </g>
   <g font-family="FreeSans" font-style="normal" xml:space="preserve" transform="translate(4.98618,100.438) rotate(-0,24,-4)" font-size="10" font-weight="normal">
    <text x="0 6 12 18 " y="-0" fill="rgb(38,38,38)">1500</text>
   </g>
   <g font-family="FreeSans" font-style="normal" xml:space="preserve" transform="translate(4.98618,79.6884) rotate(-0,24,-4)" font-size="10" font-weight="normal">
    <text x="0 6 12 18 " y="-0" fill="rgb(38,38,38)">2000</text>
   </g>
   <g font-family="FreeSans" font-style="normal" xml:space="preserve" transform="translate(4.98618,58.9387) rotate(-0,24,-4)" font-size="10" font-weight="normal">
    <text x="0 6 12 18 " y="-0" fill="rgb(38,38,38)">2500</text>
   </g>
   <g font-family="FreeSans" font-style="normal" xml:space="preserve" transform="translate(4.98618,38.1889) rotate(-0,24,-4)" font-size="10" font-weight="normal">
    <text x="0 6 12 18 " y="-0" fill="rgb(38,38,38)">3000</text>
   </g>
   <g font-family="FreeSans" font-style="normal" xml:space="preserve" transform="translate(4.98618,17.4392) rotate(-0,24,-4)" font-size="10" font-weight="normal">
    <text x="0 6 12 18 " y="-0" fill="rgb(38,38,38)">3500</text>
   </g>
   <polyline stroke-width="0.5" stroke="#262626" points="33.9959,158.687 219.356,158.687" stroke-linecap="square" stroke-linejoin="miter" stroke-dasharray="16,0" fill="none"/>
   <polyline stroke-width="0.5" stroke="#262626" points="33.9959,13.4392 219.356,13.4392" stroke-linecap="square" stroke-linejoin="miter" stroke-dasharray="16,0" fill="none"/>
   <polyline stroke-width="0.5" stroke="#262626" points="33.9959,158.687 33.9959,13.4392" stroke-linecap="square" stroke-linejoin="miter" stroke-dasharray="16,0" fill="none"/>
   <polyline stroke-width="0.5" stroke="#262626" points="219.356,158.687 219.356,13.4392" stroke-linecap="square" stroke-linejoin="miter" stroke-dasharray="16,0" fill="none"/>
  </g>
 </g>
</svg>
